
        <svg xmlns="http://www.w3.org/2000/svg" xmlns:xlink="http://www.w3.org/1999/xlink" version="1.1" width="3192" height="3192" viewBox="0 0 3192 3192">
			
			<g transform="scale(9.6) translate(10, 10)">
				<defs id="SvgjsDefs9691"/><g id="SvgjsG9692" featureKey="rootContainer" transform="matrix(1.5902660807115943,0,0,1.5902660807115943,0,0)" fill="#000"><path xmlns="http://www.w3.org/2000/svg" d="M98.254 0C44.077 0 0 44.076 0 98.254s44.077 98.254 98.254 98.254c54.177 0 98.254-44.076 98.254-98.254S152.431 0 98.254 0zm0 195.508C44.628 195.508 1 151.88 1 98.254S44.628 1 98.254 1c53.626 0 97.254 43.628 97.254 97.254s-43.628 97.254-97.254 97.254z"/><path xmlns="http://www.w3.org/2000/svg" d="M98.254 5.453c-51.171 0-92.801 41.63-92.801 92.801s41.63 92.801 92.801 92.801 92.802-41.63 92.802-92.801S149.425 5.453 98.254 5.453z"/></g><g id="SvgjsG9693" featureKey="symbolFeature-0" transform="matrix(0.9473579122594228,0,0,0.9473579122594228,108.64575538073393,64.56324047911062)" fill="#ffffff"><g xmlns="http://www.w3.org/2000/svg"><path d="M 60.7862 22.5343 C 64.8512 23.0873 67.6111 22.5773 70.9085 19.5886 C 74.1244 16.2688 75.2893 12.3006 74.5851 7.85 C 68.4701 9.6138 60.6744 12.2264 60.3829 21.4825 C 61.2528 20.2388 64.1266 16.4231 67.353 15.3207 C 64.3064 16.7908 61.6008 20.8658 60.7862 22.5343 ZM 55.6752 28.7562 C 54.2631 26.61 46.4446 23.1346 43.7045 21.8602 C 43.6821 21.8531 43.675 21.8501 43.6843 21.8509 L 43.7045 21.8602 C 44.201 22.0166 52.218 24.0941 55.7629 27.4924 C 52.9179 17.3403 39.0481 14.0654 31.5229 15.6823 C 31.8111 21.8886 36.2169 27.2657 40.2073 30.017 C 43.8539 32.5313 51.6006 32.2285 55.6752 28.7562 ZM 53.2877 50.2643 C 53.2877 50.2643 54.1969 50.6928 54.7229 50.77 C 55.1969 50.4528 56.1532 49.8001 56.3629 49.13 C 54.0732 44.6601 55.0755 39.8798 57.2847 34.4336 C 60.5626 26.3532 60.6757 20.5879 58.8213 17.0339 C 58.2101 15.8626 57.4905 16.2528 57.8412 17.2387 C 62.0753 29.1409 47.9432 38.9972 53.2877 50.2643 ZM 37.0429 60.65 C 37.1465 60.6863 38.5784 61.1304 40.6703 61.776 L 48.3018 64.1242 L 55.8359 66.4278 C 57.5875 66.9601 58.8421 67.3371 59.1829 67.43 C 60.6549 67.8315 62.5472 69.1831 63.3402 71.0658 C 63.3768 71.1528 76.4621 63.7998 76.4621 63.7998 L 76.8829 62.09 C 76.8829 62.09 73.0356 59.3864 72.1429 59.03 C 71.2502 58.6736 70.8538 59.2045 70.4629 57.77 C 70.072 56.3355 70.4902 56.2955 69.5629 55.37 C 68.6356 54.4445 67.7629 55.19 67.7629 55.19 C 67.7629 55.19 67.5811 53.5682 67.0429 52.85 C 66.5047 52.1318 66.3083 52.6591 65.0629 52.31 C 63.8174 51.9609 64.1265 52.1136 63.3829 51.95 C 62.6393 51.7864 62.3083 50.8409 60.8629 50.27 C 59.4174 49.6991 58.2829 50.45 58.2829 50.45 C 58.2829 50.45 55.9447 53.3864 55.2229 53.21 C 54.5011 53.0336 50.672 50.8409 50.3029 50.87 C 49.9338 50.8991 49.2229 52.13 49.2229 52.13 L 47.9629 53.57 L 44.6629 53.39 L 42.5029 55.55 C 42.5029 55.55 41.2174 55.0227 37.0429 60.65 ZM 58.4177 69.3638 C 58.45 69.3723 31.2825 61.0388 31.2825 61.0388 C 26.149 59.6894 21.116 62.7103 21.116 62.7103 C 21.116 62.7103 10.4355 68.5084 10.1473 68.6768 C 8.0211 69.919 7.7726 71.1913 7.7726 74.5447 L 7.7629 86.5763 C 7.7629 90.0585 9.4821 90.8225 12.1414 89.6803 L 18.7897 86.3221 C 22.1559 84.3996 25.8591 85.462 25.8591 85.462 L 50.0806 91.8913 C 53.5257 92.8057 56.6884 91.0021 56.6884 91.0021 L 88.8987 72.6335 C 88.7894 72.6958 94.218 69.492 91.3922 64.7267 C 88.2351 59.4027 82.7804 62.3001 82.7804 62.3001 L 63.7853 72.9768 C 64.0728 75.613 62.9547 78.2411 61.0104 79.5233 C 58.6865 81.0559 55.7285 80.3803 54.9536 80.1756 C 48.2085 78.5302 41.4122 76.5986 34.6379 74.8773 C 34.2521 74.7753 33.7848 74.72 33.4932 74.7791 C 32.2328 74.8546 30.8477 75.6458 29.8575 75.9967 C 29.3687 76.2759 28.9579 75.7588 28.8638 75.5978 C 28.2993 74.6319 29.4993 74.2684 29.7436 74.1288 C 31.1283 73.3377 32.2217 72.6056 34.2661 72.9411 C 41.6098 74.3349 49.0759 76.8506 56.5012 78.5378 C 62.3381 80.0785 64.1339 70.8671 58.4177 69.3638 Z"/></g></g><g id="SvgjsG9694" featureKey="nameFeature-0" transform="matrix(0.6841256358482001,0,0,0.6841256358482001,53.78343342265229,171.15875016584846)" fill="#ffffff"><path d="M24.16 10 q0.6 0 1 0.42 t0.4 0.98 l0 2.88 q0 0.56 -0.4 0.98 t-1 0.42 l-15.12 0 l0 6.12 l13.36 0 q0.6 0 1 0.42 t0.4 0.98 l0 2.92 q0 0.56 -0.4 0.98 t-1 0.42 l-13.36 0 l0 6.16 l15.12 0 q0.6 0 1 0.42 t0.4 0.98 l0 2.88 q0 0.56 -0.4 0.98 t-1 0.42 l-19.52 0 q-0.56 0 -0.98 -0.42 t-0.42 -0.98 l0 -26.56 q0 -0.56 0.42 -0.98 t0.98 -0.42 l19.52 0 z M57.816 14.399999999999999 q4.12 4.24 4.12 10.56 q0 5.48 -3.12 9.44 l1.64 1.6 q0.4 0.4 0.4 0.98 t-0.4 1.02 l-2.12 2.12 q-0.48 0.4 -1 0.4 t-1 -0.4 l-1.92 -1.96 q-3.28 1.76 -7.32 1.76 q-6.52 0 -10.72 -4.4 q-4.12 -4.24 -4.12 -10.56 t4.12 -10.56 q4.2 -4.4 10.72 -4.4 t10.72 4.4 z M47.816 29.6 l2.12 -2.12 q0.44 -0.44 1 -0.44 t0.96 0.44 l2.84 2.8 q1.4 -2.16 1.4 -5.32 q0 -4.04 -2.44 -6.64 t-6.6 -2.6 t-6.62 2.6 t-2.46 6.64 t2.46 6.64 t6.62 2.6 q1.64 0 2.96 -0.4 l-2.24 -2.24 q-0.4 -0.36 -0.4 -0.96 t0.4 -1 z M88.75200000000001 33.68 q0.6 0 1 0.42 t0.4 0.98 l0 2.88 q0 0.56 -0.4 0.98 t-1 0.42 l-17.48 0 q-0.56 0 -0.98 -0.42 t-0.42 -0.98 l0 -26.56 q0 -0.56 0.42 -0.98 t0.98 -0.42 l3 0 q0.56 0 0.98 0.42 t0.42 0.98 l0 22.28 l13.08 0 z M101.968 10 q0.56 0 0.98 0.42 t0.42 0.98 l0 26.56 q0 0.56 -0.42 0.98 t-0.98 0.42 l-3 0 q-0.56 0 -0.98 -0.42 t-0.42 -0.98 l0 -26.56 q0 -0.56 0.42 -0.98 t0.98 -0.42 l3 0 z M135.104 14.280000000000001 q0 0.56 -0.32 0.88 l-15.44 18.6 l14.4 0 q0.56 0 0.96 0.42 t0.4 0.98 l0 2.8 q0 0.56 -0.4 0.98 t-0.96 0.42 l-21.04 0 q-0.56 0 -0.98 -0.42 t-0.42 -0.98 l0 -2.84 q0 -0.48 0.32 -0.88 l15.44 -18.64 l-14.12 0 q-0.56 0 -0.98 -0.42 t-0.42 -0.98 l0 -2.8 q0 -0.56 0.42 -0.98 t0.98 -0.42 l20.8 0 q0.56 0 0.96 0.42 t0.4 0.98 l0 2.88 z M164.04 10 q0.6 0 1 0.42 t0.4 0.98 l0 2.88 q0 0.56 -0.4 0.98 t-1 0.42 l-15.12 0 l0 6.12 l13.36 0 q0.6 0 1 0.42 t0.4 0.98 l0 2.92 q0 0.56 -0.4 0.98 t-1 0.42 l-13.36 0 l0 6.16 l15.12 0 q0.6 0 1 0.42 t0.4 0.98 l0 2.88 q0 0.56 -0.4 0.98 t-1 0.42 l-19.52 0 q-0.56 0 -0.98 -0.42 t-0.42 -0.98 l0 -26.56 q0 -0.56 0.42 -0.98 t0.98 -0.42 l19.52 0 z M210.072 10 q0.56 0 0.98 0.42 t0.42 0.98 l0 26.56 q0 0.56 -0.42 0.98 t-0.98 0.42 l-3.52 0 q-0.68 0 -1.12 -0.56 l-13.88 -19 l0 18.16 q0 0.56 -0.42 0.98 t-0.98 0.42 l-3 0 q-0.56 0 -0.98 -0.42 t-0.42 -0.98 l0 -26.56 q0 -0.56 0.42 -0.98 t0.98 -0.42 l3.48 0 q0.32 0 0.64 0.14 t0.48 0.42 l13.92 18.92 l0 -18.08 q0 -0.56 0.4 -0.98 t0.96 -0.42 l3.04 0 z M234.688 10 q6.56 0 10.76 4.4 q4.12 4.32 4.12 10.6 t-4.12 10.6 q-4.2 4.4 -10.76 4.4 t-10.76 -4.4 q-4.12 -4.32 -4.12 -10.6 t4.12 -10.6 q4.2 -4.4 10.76 -4.4 z M234.688 34.28 q4.12 0 6.64 -2.64 q2.44 -2.56 2.44 -6.62 t-2.48 -6.68 t-6.6 -2.62 t-6.6 2.62 t-2.48 6.68 t2.44 6.62 q2.52 2.64 6.64 2.64 z M294.18399999999997 10 q0.68 0 1.12 0.56 q0.2 0.28 0.26 0.62 t-0.06 0.62 l-8.24 26.6 q-0.16 0.44 -0.52 0.7 t-0.84 0.26 l-3.4 0 q-0.44 0 -0.82 -0.28 t-0.5 -0.68 l-5.88 -18.2 l-5.84 18.2 q-0.16 0.44 -0.52 0.7 t-0.8 0.26 l-3.44 0 q-0.44 0 -0.8 -0.26 t-0.52 -0.7 l-8.24 -26.6 q-0.12 -0.28 -0.06 -0.62 t0.24 -0.62 t0.5 -0.42 t0.64 -0.14 l3.16 0 q0.44 0 0.82 0.28 t0.5 0.72 l5.52 18.04 l5.8 -18.08 q0.16 -0.44 0.52 -0.7 t0.8 -0.26 l3.48 0 q0.44 0 0.8 0.26 t0.52 0.7 l5.76 18.08 l5.52 -18.04 q0.16 -0.44 0.52 -0.72 t0.84 -0.28 l3.16 0 z"/></g><g id="SvgjsG9695" featureKey="sloganFeature-0" transform="matrix(1.150516350741061,0,0,1.150516350741061,73.12370912314735,204.69327273764642)" fill="#ffffff"><path d="M2.5 18.7 l0 -10.64 c0 -0.46 0.36 -0.7 0.7 -0.7 l4.6 0 c0.44 0 0.66 0.32 0.66 0.66 s-0.22 0.68 -0.66 0.68 l-3.96 0 l0 3.88 l3.14 0 c0.46 0 0.68 0.32 0.68 0.66 s-0.24 0.7 -0.68 0.7 l-3.14 0 l0 4.14 l3.96 0 c0.42 0 0.64 0.34 0.64 0.66 c0 0.34 -0.22 0.66 -0.64 0.66 l-4.6 0 c-0.34 0 -0.7 -0.12 -0.7 -0.7 z M11.161999999999999 15.86 l0 -4.96 c0 -2.4 1.24 -3.68 3.66 -3.68 l0.5 0 c2.4 0 3.66 1.28 3.66 3.68 l0 4.96 c0 2.12 -1.3 3.52 -3.32 3.64 l0 1 c0 0.88 -1.28 0.84 -1.28 0 l0 -1 c-2 -0.16 -3.22 -1.7 -3.22 -3.64 z M14.822 18.16 l0.5 0 c1.46 0 2.34 -0.94 2.34 -2.3 l0 -4.96 c0 -1.56 -0.78 -2.36 -2.34 -2.36 l-0.5 0 c-1.52 0 -2.36 0.82 -2.36 2.36 l0 4.96 c0 1.46 0.92 2.3 2.36 2.3 z M22.184 15.86 l0 -7.86 c0 -0.42 0.34 -0.64 0.66 -0.64 c0.34 0 0.66 0.22 0.66 0.64 l0 7.86 c0 1.44 0.98 2.3 2.34 2.3 l0.5 0 c1.4 0 2.36 -0.98 2.36 -2.3 l0 -7.86 c0 -0.42 0.32 -0.64 0.66 -0.64 c0.32 0 0.66 0.22 0.66 0.64 l0 7.86 c0 2.06 -1.46 3.64 -3.68 3.64 l-0.5 0 c-2.22 0 -3.66 -1.54 -3.66 -3.64 z M39.246 18.86 l-0.78 -2.54 l-3.72 0 l-0.74 2.5 c-0.26 0.86 -1.58 0.6 -1.3 -0.28 c1.04 -3.5 2.06 -7.06 3.08 -10.6 c0.12 -0.38 0.44 -0.58 0.76 -0.58 c0.3 0 0.62 0.2 0.74 0.58 l3.18 10.6 c0.22 0.76 -0.96 1.18 -1.22 0.32 z M36.586 10.06 l-1.44 4.92 l2.94 0 c-0.5 -1.68 -0.96 -3.12 -1.5 -4.92 z M43.407999999999994 18.76 l0 -10.76 c0 -0.42 0.32 -0.64 0.64 -0.64 s0.66 0.22 0.66 0.64 l0 10.06 l3.98 0 c0.44 0 0.68 0.34 0.68 0.68 s-0.24 0.66 -0.68 0.66 l-4.62 0 c-0.4 0 -0.66 -0.32 -0.66 -0.64 z M51.82999999999999 18.78 l0 -10.78 c0 -0.42 0.32 -0.64 0.64 -0.64 s0.66 0.22 0.66 0.64 l0 10.78 c0 0.86 -1.3 0.86 -1.3 0 z M57.23199999999999 7.359999999999999 l5.32 0 c0.66 0 1.18 0.78 0.68 1.64 l-2.4 4.12 c-1.04 1.78 -1.84 3.22 -2.82 4.94 l4.72 0 c0.44 0 0.66 0.34 0.66 0.68 s-0.22 0.66 -0.66 0.66 l-5.46 0 c-0.78 0 -1.06 -0.82 -0.78 -1.32 l5.42 -9.38 l-4.68 0 c-0.44 0 -0.66 -0.34 -0.66 -0.68 c0 -0.32 0.18 -0.66 0.66 -0.66 z M66.89399999999999 18.7 l0 -10.64 c0 -0.46 0.36 -0.7 0.7 -0.7 l4.6 0 c0.44 0 0.66 0.32 0.66 0.66 s-0.22 0.68 -0.66 0.68 l-3.96 0 l0 3.88 l3.14 0 c0.46 0 0.68 0.32 0.68 0.66 s-0.24 0.7 -0.68 0.7 l-3.14 0 l0 4.14 l3.96 0 c0.42 0 0.64 0.34 0.64 0.66 c0 0.34 -0.22 0.66 -0.64 0.66 l-4.6 0 c-0.34 0 -0.7 -0.12 -0.7 -0.7 z M85.458 16.96 l2.4 -6.36 l-0.6 -2.34 c-0.26 -0.96 1.08 -1.2 1.3 -0.36 l2.36 8.68 l2.54 -8.68 c0.26 -0.9 1.58 -0.52 1.32 0.34 l-3.1 10.54 c-0.12 0.38 -0.46 0.62 -0.78 0.62 c-0.36 0 -0.68 -0.22 -0.8 -0.62 l-1.64 -6.02 c-0.76 2 -1.56 4.04 -2.3 6.04 c-0.14 0.36 -0.46 0.6 -0.76 0.6 s-0.6 -0.2 -0.74 -0.64 l-3.18 -10.52 c-0.26 -0.86 0.96 -1.14 1.22 -0.38 z M97.88 18.7 l0 -10.64 c0 -0.46 0.36 -0.7 0.7 -0.7 l4.6 0 c0.44 0 0.66 0.32 0.66 0.66 s-0.22 0.68 -0.66 0.68 l-3.96 0 l0 3.88 l3.14 0 c0.46 0 0.68 0.32 0.68 0.66 s-0.24 0.7 -0.68 0.7 l-3.14 0 l0 4.14 l3.96 0 c0.42 0 0.64 0.34 0.64 0.66 c0 0.34 -0.22 0.66 -0.64 0.66 l-4.6 0 c-0.34 0 -0.7 -0.12 -0.7 -0.7 z M112.80199999999999 18.86 l-0.78 -2.54 l-3.72 0 l-0.74 2.5 c-0.26 0.86 -1.58 0.6 -1.3 -0.28 c1.04 -3.5 2.06 -7.06 3.08 -10.6 c0.12 -0.38 0.44 -0.58 0.76 -0.58 c0.3 0 0.62 0.2 0.74 0.58 l3.18 10.6 c0.22 0.76 -0.96 1.18 -1.22 0.32 z M110.14199999999998 10.06 l-1.44 4.92 l2.94 0 c-0.5 -1.68 -0.96 -3.12 -1.5 -4.92 z M116.96399999999998 18.76 l0 -10.76 c0 -0.42 0.32 -0.64 0.64 -0.64 s0.66 0.22 0.66 0.64 l0 10.06 l3.98 0 c0.44 0 0.68 0.34 0.68 0.68 s-0.24 0.66 -0.68 0.66 l-4.62 0 c-0.4 0 -0.66 -0.32 -0.66 -0.64 z M125.02599999999998 7.359999999999999 l6.04 0 c0.42 0 0.62 0.34 0.62 0.68 s-0.2 0.66 -0.62 0.66 l-2.28 0 l0 10.06 c0 0.42 -0.34 0.64 -0.68 0.64 s-0.66 -0.22 -0.66 -0.64 l0 -10.06 l-2.42 0 c-0.42 0 -0.62 -0.32 -0.62 -0.66 s0.2 -0.68 0.62 -0.68 z M134.38799999999998 18.76 l0 -10.76 c0 -0.42 0.32 -0.62 0.66 -0.62 s0.68 0.2 0.68 0.62 l0 4.58 l4.54 0 l0 -4.58 c0 -0.42 0.32 -0.64 0.64 -0.64 s0.66 0.22 0.66 0.64 l0 10.76 c0 0.42 -0.34 0.64 -0.66 0.64 s-0.64 -0.22 -0.64 -0.64 l0 -4.82 l-4.54 0 l0 4.82 c0 0.42 -0.34 0.64 -0.68 0.64 s-0.66 -0.22 -0.66 -0.64 z"/></g>
			</g>
		</svg>
	